<?xml version="1.0" encoding="iso-8859-1"?>
<!-- Generator: Adobe Illustrator 29.5.1, SVG Export Plug-In . SVG Version: 9.03 Build 0)  -->
<svg version="1.1" xmlns="http://www.w3.org/2000/svg" xmlns:xlink="http://www.w3.org/1999/xlink" x="0px" y="0px"
	 viewBox="0 0 64 64" style="enable-background:new 0 0 64 64;" xml:space="preserve">
<g id="Layer_1">
</g>
<g id="Layer_3">
	<g>
		<rect x="47.787" y="43.418" width="0.853" height="0.846"/>
		<rect x="44.373" y="43.418" width="0.853" height="0.846"/>
		<rect x="40.107" y="43.418" width="0.853" height="0.846"/>
		<rect x="38.4" y="43.418" width="0.853" height="0.846"/>
		<rect x="40.96" y="42.572" width="0.853" height="0.846"/>
		<rect x="39.253" y="42.572" width="0.853" height="0.846"/>
		<rect x="37.547" y="42.572" width="0.853" height="0.846"/>
		<rect x="40.107" y="41.727" width="0.853" height="0.846"/>
		<rect x="38.4" y="41.727" width="0.853" height="0.846"/>
		<rect x="39.253" y="40.881" width="0.853" height="0.846"/>
		<rect x="37.547" y="40.881" width="0.853" height="0.846"/>
		<rect x="40.107" y="40.035" width="0.853" height="0.846"/>
		<rect x="38.4" y="40.035" width="0.853" height="0.846"/>
		<rect x="40.96" y="39.189" width="0.853" height="0.846"/>
		<rect x="39.253" y="39.189" width="0.853" height="0.846"/>
		<rect x="44.373" y="38.343" width="0.853" height="0.846"/>
		<rect x="40.107" y="38.343" width="0.853" height="0.846"/>
		<rect x="38.4" y="38.343" width="0.853" height="0.846"/>
		<rect x="43.52" y="37.498" width="0.853" height="0.846"/>
		<rect x="41.813" y="37.498" width="0.853" height="0.846"/>
		<rect x="3.413" y="37.498" width="0.853" height="0.846"/>
		<rect y="37.498" width="0.853" height="0.846"/>
		<rect x="58.027" y="36.652" width="0.853" height="0.846"/>
		<rect x="44.373" y="36.652" width="0.853" height="0.846"/>
		<rect x="38.4" y="36.652" width="0.853" height="0.846"/>
		<rect x="36.693" y="36.652" width="0.853" height="0.846"/>
		<rect x="34.987" y="36.652" width="0.853" height="0.846"/>
		<rect x="31.573" y="36.652" width="0.853" height="0.846"/>
		<rect x="28.16" y="36.652" width="0.853" height="0.846"/>
		<rect x="24.747" y="36.652" width="0.853" height="0.846"/>
		<rect x="21.333" y="36.652" width="0.853" height="0.846"/>
		<rect x="19.627" y="36.652" width="0.853" height="0.846"/>
		<rect x="14.507" y="36.652" width="0.853" height="0.846"/>
		<rect x="11.093" y="36.652" width="0.853" height="0.846"/>
		<rect x="7.68" y="36.652" width="0.853" height="0.846"/>
		<rect x="4.267" y="36.652" width="0.853" height="0.846"/>
		<rect x="2.56" y="36.652" width="0.853" height="0.846"/>
		<rect x="0.853" y="36.652" width="0.853" height="0.846"/>
		<rect x="35.84" y="35.806" width="0.853" height="0.846"/>
		<rect x="34.133" y="35.806" width="0.853" height="0.846"/>
		<rect x="20.48" y="35.806" width="0.853" height="0.846"/>
		<rect x="18.773" y="35.806" width="0.853" height="0.846"/>
		<rect x="3.413" y="35.806" width="0.853" height="0.846"/>
		<rect x="1.707" y="35.806" width="0.853" height="0.846"/>
		<rect x="34.987" y="34.96" width="0.853" height="0.846"/>
		<rect x="21.333" y="34.96" width="0.853" height="0.846"/>
		<rect x="19.627" y="34.96" width="0.853" height="0.846"/>
		<rect x="4.267" y="34.96" width="0.853" height="0.846"/>
		<rect x="2.56" y="34.96" width="0.853" height="0.846"/>
		<rect x="20.48" y="34.114" width="0.853" height="0.846"/>
		<rect x="18.773" y="34.114" width="0.853" height="0.846"/>
		<rect x="5.12" y="34.114" width="0.853" height="0.846"/>
		<rect x="59.733" y="33.269" width="0.853" height="0.846"/>
		<path d="M34.133,33.269H33.28v-0.846h0.853v-0.846v-0.846v-0.846H33.28V29.04v-0.846h-0.853h-0.853v-0.846H30.72v-0.846h0.853
			v-0.846h0.853h0.853h0.853v-0.846h0.853v-0.846h0.853h0.853v-0.846h0.853v-0.846H38.4v-0.846h-0.853h-0.853H35.84h-0.853h-0.853
			H33.28h-0.853h-0.853H30.72h-0.853v0.846v0.846h-0.853H28.16v0.846h0.853v0.846H28.16v0.846v0.846h-0.853h-0.853v0.846H25.6
			h-0.853h-0.853v-0.846H23.04v-0.846h-0.853v-0.846v-0.846v-0.846v-0.846v-0.846h-0.853H20.48h-0.853h-0.853H17.92h-0.853h-0.853
			H15.36h-0.853v0.846h-0.853v0.846v0.846v0.846H12.8v0.846v0.846v0.846h0.853v0.846H12.8v0.846h0.853v0.846h0.853v0.846v0.846
			h-0.853H12.8v0.846h-0.853v-0.846h-0.853v0.846v0.846H10.24H9.387v0.846H8.533v0.846v0.846h0.853h0.853h0.853h0.853H12.8h0.853
			h0.853h0.853h0.853h0.853V34.96v-0.846h0.853v-0.846v-0.846h0.853v-0.846H17.92v-0.846h0.853v-0.846h0.853h0.853h0.853v0.846
			h0.853v-0.846h0.853v0.846h0.853v0.846v0.846v0.846H23.04v0.846h0.853v0.846h0.853v0.846H25.6h0.853h0.853h0.853h0.853h0.853
			h0.853h0.853V34.96h0.853v-0.846h0.853h0.853V33.269z M29.867,26.502v0.846h-0.853v-0.846H29.867z M16.213,30.731H15.36v-0.846
			h0.853h0.853v0.846H16.213z"/>
		<rect x="21.333" y="33.269" width="0.853" height="0.846"/>
		<rect x="19.627" y="33.269" width="0.853" height="0.846"/>
		<rect x="5.973" y="33.269" width="0.853" height="0.846"/>
		<rect x="4.267" y="33.269" width="0.853" height="0.846"/>
		<rect x="2.56" y="33.269" width="0.853" height="0.846"/>
		<rect x="20.48" y="32.423" width="0.853" height="0.846"/>
		<rect x="5.12" y="32.423" width="0.853" height="0.846"/>
		<rect x="47.787" y="31.577" width="0.853" height="0.846"/>
		<rect x="34.987" y="31.577" width="0.853" height="0.846"/>
		<rect x="21.333" y="31.577" width="0.853" height="0.846"/>
		<rect x="7.68" y="31.577" width="0.853" height="0.846"/>
		<rect x="5.973" y="31.577" width="0.853" height="0.846"/>
		<rect x="8.533" y="30.731" width="0.853" height="0.846"/>
		<rect x="6.827" y="30.731" width="0.853" height="0.846"/>
		<rect x="61.44" y="29.886" width="0.853" height="0.846"/>
		<rect x="47.787" y="29.886" width="0.853" height="0.846"/>
		<rect x="46.08" y="29.886" width="0.853" height="0.846"/>
		<rect x="34.987" y="29.886" width="0.853" height="0.846"/>
		<rect x="11.093" y="29.886" width="0.853" height="0.846"/>
		<rect x="9.387" y="29.886" width="0.853" height="0.846"/>
		<rect x="7.68" y="29.886" width="0.853" height="0.846"/>
		<rect x="48.64" y="29.04" width="0.853" height="0.846"/>
		<rect x="46.933" y="29.04" width="0.853" height="0.846"/>
		<rect x="10.24" y="29.04" width="0.853" height="0.846"/>
		<rect x="8.533" y="29.04" width="0.853" height="0.846"/>
		<rect x="6.827" y="29.04" width="0.853" height="0.846"/>
		<rect x="49.493" y="28.194" width="0.853" height="0.846"/>
		<rect x="47.787" y="28.194" width="0.853" height="0.846"/>
		<rect x="9.387" y="28.194" width="0.853" height="0.846"/>
		<rect x="7.68" y="28.194" width="0.853" height="0.846"/>
		<rect x="48.64" y="27.348" width="0.853" height="0.846"/>
		<rect x="10.24" y="27.348" width="0.853" height="0.846"/>
		<rect x="8.533" y="27.348" width="0.853" height="0.846"/>
		<rect x="6.827" y="27.348" width="0.853" height="0.846"/>
		<rect x="63.147" y="26.502" width="0.853" height="0.846"/>
		<rect x="49.493" y="26.502" width="0.853" height="0.846"/>
		<rect x="47.787" y="26.502" width="0.853" height="0.846"/>
		<rect x="46.08" y="26.502" width="0.853" height="0.846"/>
		<rect x="36.693" y="26.502" width="0.853" height="0.846"/>
		<rect x="34.987" y="26.502" width="0.853" height="0.846"/>
		<rect x="33.28" y="26.502" width="0.853" height="0.846"/>
		<rect x="9.387" y="26.502" width="0.853" height="0.846"/>
		<rect x="7.68" y="26.502" width="0.853" height="0.846"/>
		<rect x="50.347" y="25.657" width="0.853" height="0.846"/>
		<rect x="48.64" y="25.657" width="0.853" height="0.846"/>
		<rect x="8.533" y="25.657" width="0.853" height="0.846"/>
		<rect x="6.827" y="25.657" width="0.853" height="0.846"/>
		<rect x="51.2" y="24.811" width="0.853" height="0.846"/>
		<rect x="49.493" y="24.811" width="0.853" height="0.846"/>
		<rect x="47.787" y="24.811" width="0.853" height="0.846"/>
		<rect x="34.987" y="24.811" width="0.853" height="0.846"/>
		<rect x="24.747" y="24.811" width="0.853" height="0.846"/>
		<rect x="11.093" y="24.811" width="0.853" height="0.846"/>
		<rect x="9.387" y="24.811" width="0.853" height="0.846"/>
		<rect x="7.68" y="24.811" width="0.853" height="0.846"/>
		<rect x="25.6" y="23.965" width="0.853" height="0.846"/>
		<rect x="23.893" y="23.965" width="0.853" height="0.846"/>
		<rect x="10.24" y="23.965" width="0.853" height="0.846"/>
		<rect x="8.533" y="23.965" width="0.853" height="0.846"/>
		<rect x="6.827" y="23.965" width="0.853" height="0.846"/>
		<rect x="38.4" y="23.119" width="0.853" height="0.846"/>
		<rect x="26.453" y="23.119" width="0.853" height="0.846"/>
		<rect x="24.747" y="23.119" width="0.853" height="0.846"/>
		<rect x="11.093" y="23.119" width="0.853" height="0.846"/>
		<rect x="9.387" y="23.119" width="0.853" height="0.846"/>
		<rect x="7.68" y="23.119" width="0.853" height="0.846"/>
		<rect x="25.6" y="22.273" width="0.853" height="0.846"/>
		<rect x="10.24" y="22.273" width="0.853" height="0.846"/>
		<rect x="8.533" y="22.273" width="0.853" height="0.846"/>
		<rect x="26.453" y="21.428" width="0.853" height="0.846"/>
		<rect x="24.747" y="21.428" width="0.853" height="0.846"/>
		<rect x="11.093" y="21.428" width="0.853" height="0.846"/>
		<rect x="9.387" y="21.428" width="0.853" height="0.846"/>
		<rect x="7.68" y="21.428" width="0.853" height="0.846"/>
		<path d="M62.293,20.582v0.846H61.44h-0.853h-0.853H58.88h-0.853h-0.853H56.32h-0.853h-0.853H53.76h-0.853h-0.853H51.2h-0.853
			h-0.853H48.64h-0.853h-0.853H46.08h-0.853h-0.853H43.52h-0.853v0.846h-0.853v0.846H40.96v0.846h-0.853v0.846h-0.853H38.4v0.846
			v0.846v0.846h-0.853v0.846h-0.853v0.846v0.846v0.846v0.846v0.846v0.846v0.846h0.853H38.4v0.846h0.853h0.853v0.846h0.853V34.96
			h0.853h0.853v0.846h0.853V34.96h0.853h0.853h0.853v0.846h0.853V34.96h0.853h0.853h0.853v0.846v0.846H48.64h-0.853v0.846h0.853
			v0.846h-0.853h-0.853v0.846H46.08h-0.853v0.846h-0.853H43.52h-0.853v0.846v0.846v0.846h0.853h0.853h0.853h0.853h0.853h0.853h0.853
			h0.853h0.853v-0.846H51.2h0.853v-0.846h0.853h0.853v-0.846h0.853v-0.846h0.853v-0.846h0.853v-0.846h0.853v-0.846v-0.846V34.96
			h0.853v-0.846h0.853v-0.846v-0.846v-0.846h0.853v-0.846v-0.846h0.853V29.04v-0.846h0.853v-0.846v-0.846v-0.846h0.853v-0.846
			v-0.846h0.853v-0.846v-0.846H64v-0.846h-0.853v-0.846H62.293z M45.227,32.423v-0.846h-0.853v-0.846h0.853v-0.846h-0.853V29.04
			h0.853v-0.846v-0.846v-0.846h0.853v-0.846h0.853v-0.846h0.853v-0.846h0.853v-0.846h0.853h0.853H51.2v0.846h0.853h0.853v0.846
			v0.846h0.853v0.846h-0.853v0.846v0.846h-0.853v0.846v0.846H51.2v0.846h-0.853v0.846h-0.853v0.846H48.64v0.846h-0.853h-0.853H46.08
			h-0.853V32.423z"/>
		<rect x="25.6" y="20.582" width="0.853" height="0.846"/>
		<rect x="8.533" y="20.582" width="0.853" height="0.846"/>
		<rect x="63.147" y="19.736" width="0.853" height="0.846"/>
		<rect x="59.733" y="19.736" width="0.853" height="0.846"/>
		<rect x="56.32" y="19.736" width="0.853" height="0.846"/>
		<rect x="52.907" y="19.736" width="0.853" height="0.846"/>
		<rect x="49.493" y="19.736" width="0.853" height="0.846"/>
		<rect x="46.08" y="19.736" width="0.853" height="0.846"/>
		<rect x="42.667" y="19.736" width="0.853" height="0.846"/>
		<rect x="40.107" y="19.736" width="0.853" height="0.846"/>
		<rect x="36.693" y="19.736" width="0.853" height="0.846"/>
		<rect x="33.28" y="19.736" width="0.853" height="0.846"/>
		<rect x="29.867" y="19.736" width="0.853" height="0.846"/>
		<rect x="28.16" y="19.736" width="0.853" height="0.846"/>
		<rect x="26.453" y="19.736" width="0.853" height="0.846"/>
		<rect x="24.747" y="19.736" width="0.853" height="0.846"/>
		<rect x="23.04" y="19.736" width="0.853" height="0.846"/>
		<rect x="19.627" y="19.736" width="0.853" height="0.846"/>
		<rect x="16.213" y="19.736" width="0.853" height="0.846"/>
		<rect x="12.8" y="19.736" width="0.853" height="0.846"/>
		<rect x="11.093" y="19.736" width="0.853" height="0.846"/>
		<rect x="9.387" y="19.736" width="0.853" height="0.846"/>
	</g>
</g>
</svg>
