<svg width="64" height="64" viewBox="0 0 64 64" fill="none" xmlns="http://www.w3.org/2000/svg">
<path d="M10.2588 34.624L10.3532 34.4397L12.6918 29.8643C10.3273 30.1099 8.01945 30.7194 5.98093 31.5768C3.42746 32.6563 1.29445 34.1303 0 35.7932L8.43519 35.8192C9.12966 35.8216 9.9068 35.3113 10.2588 34.624Z" fill="black"/>
<path d="M17.9427 34.4205C17.6876 35.2189 18.1151 35.8496 18.9135 35.8519L25.9527 35.8732C26.6991 35.8755 27.5306 35.3322 27.9085 34.5953L28.4046 33.6268C30.1266 30.2607 28.6195 27.2372 25.2133 27.2254L21.7575 27.2159L19.6033 27.2089C19.4781 27.2089 15.0372 27.0695 16.5986 22.4657C16.875 21.6531 16.4522 21.0012 15.6396 20.9988L8.79176 20.9775C8.04532 20.9752 7.21149 21.5208 6.83591 22.2555L6.22175 23.4531C4.50212 26.8191 6.00916 29.8426 9.41536 29.8545L12.6916 29.8639L14.8554 29.871C15.5664 29.8734 19.23 30.4143 17.9427 34.4205Z" fill="black"/>
<path d="M34.7663 21.0606L26.1351 21.0322C25.4406 21.0299 24.6635 21.5401 24.3115 22.2251L21.7581 27.2163C27.276 26.673 32.4987 24.188 34.7663 21.0606Z" fill="black"/>
<path d="M61.7914 25.4097L62.6064 23.8176L64 21.0941L57.8892 21.0752L54.8822 21.0657L44.1038 21.0303C42.0392 21.0256 39.7669 21.7626 37.7071 23.109C35.6497 24.4554 33.9395 26.3238 32.8954 28.3647C31.934 30.2426 31.7947 32.1418 32.5127 33.5803C33.2285 35.0165 34.7284 35.848 36.6252 35.8551L47.5926 35.8881C46.1942 38.6377 42.9794 40.9006 40.1472 41.2218C39.8991 41.2502 39.6913 41.3659 39.5307 41.5313C39.1031 41.9659 39.0228 42.7383 39.4763 43.0808C39.6181 43.1919 39.8118 43.258 40.0645 43.258L45.6746 43.2769C46.7753 43.2793 47.9375 43.0572 49.0879 42.632C49.9618 42.3131 50.8311 41.8738 51.6602 41.3305C51.9697 41.1274 52.272 40.9124 52.5626 40.6833C54.0294 39.5471 55.253 38.1251 56.0751 36.5873L61.7914 25.4097ZM44.7817 33.6205H44.1415C43.3573 33.6158 42.6605 33.3914 42.1951 32.9307C41.3708 32.1158 41.3164 30.7741 41.9896 29.456L43.551 26.4065C44.4652 24.6184 46.4871 23.2956 48.2965 23.3003H48.9367C49.7209 23.305 50.4177 23.5294 50.8831 23.9901C51.7075 24.805 51.7642 26.1443 51.0886 27.4648L49.5272 30.5143C48.6131 32.3024 46.5911 33.6252 44.7817 33.6205Z" fill="black"/>
</svg>
